<mxfile host="app.diagrams.net" modified="2023-05-12T08:42:07.195Z" agent="Mozilla/5.0 (Windows NT 10.0; Win64; x64) AppleWebKit/537.36 (KHTML, like Gecko) Chrome/113.0.0.0 Safari/537.36" version="21.2.1" etag="KB5rDzM4t5TZKLtH4dO9" type="github">
  <diagram name="Page-1" id="QShigS1TEP22teEFrOnC">
    <mxGraphModel>
      <root>
        <mxCell id="0" />
        <mxCell id="1" parent="0" />
      </root>
    </mxGraphModel>
  </diagram>
</mxfile>
